<?xml version="1.0" standalone="no"?>
<!DOCTYPE svg PUBLIC "-//W3C//DTD SVG 20010904//EN"
 "http://www.w3.org/TR/2001/REC-SVG-20010904/DTD/svg10.dtd">
<svg version="1.0" xmlns="http://www.w3.org/2000/svg"
 width="300.000000pt" height="299.000000pt" viewBox="0 0 300.000000 299.000000"
 preserveAspectRatio="xMidYMid meet">
<metadata>
Created by potrace 1.10, written by Peter Selinger 2001-2011
</metadata>
<g transform="translate(0.000000,299.000000) scale(0.100000,-0.100000)"
fill="#771e18" stroke="none">
<path d="M1397 2950 c-12 -18 -15 -18 -20 -5 -8 20 -44 19 -56 -2 -8 -15 -12
-16 -22 -5 -18 17 -46 15 -57 -4 -7 -13 -13 -14 -30 -5 -18 9 -25 8 -40 -7
-13 -13 -24 -17 -35 -11 -19 11 -47 1 -47 -16 0 -10 -10 -12 -36 -8 -30 5 -36
3 -41 -16 -4 -16 -8 -19 -19 -10 -19 16 -54 1 -54 -23 0 -17 -3 -18 -15 -8
-19 16 -55 3 -55 -20 0 -16 -5 -18 -31 -13 -25 5 -31 2 -36 -16 -4 -17 -11
-21 -26 -17 -26 6 -47 -10 -47 -36 0 -15 -3 -17 -19 -8 -23 12 -56 -14 -47
-37 4 -11 1 -13 -15 -8 -24 8 -49 -10 -49 -35 0 -13 -6 -16 -25 -12 -21 4 -26
0 -31 -26 -4 -22 -11 -28 -23 -25 -22 6 -45 -22 -37 -43 5 -12 2 -15 -10 -10
-22 9 -44 -11 -44 -40 0 -18 -4 -22 -16 -17 -21 8 -44 -21 -37 -46 3 -13 -1
-18 -19 -17 -19 1 -24 -5 -29 -34 -4 -19 -7 -31 -8 -27 0 4 -10 3 -22 -4 -15
-7 -20 -18 -16 -34 3 -19 -1 -25 -17 -27 -17 -2 -21 -10 -20 -35 2 -26 -2 -33
-20 -35 -17 -2 -21 -9 -20 -35 2 -26 -2 -33 -16 -33 -23 0 -33 -26 -20 -51 9
-16 7 -19 -9 -19 -24 0 -37 -35 -21 -55 10 -12 9 -15 -3 -15 -21 0 -38 -32
-27 -50 5 -9 1 -19 -13 -31 -19 -15 -20 -21 -9 -38 15 -26 15 -31 -2 -31 -20
0 -30 -38 -16 -55 10 -12 9 -16 -4 -21 -17 -7 -22 -49 -6 -59 5 -3 0 -15 -11
-26 -19 -19 -19 -22 -5 -44 13 -20 13 -24 1 -29 -18 -6 -20 -37 -4 -53 9 -9 8
-16 -5 -28 -20 -21 -20 -24 1 -48 13 -15 15 -21 6 -24 -18 -7 -16 -50 3 -61
14 -8 14 -10 0 -21 -20 -17 -20 -35 -1 -51 11 -9 13 -16 5 -24 -15 -15 -12
-44 6 -54 14 -8 14 -12 3 -31 -13 -20 -12 -24 9 -41 20 -17 21 -22 10 -40 -11
-19 -10 -24 9 -39 15 -13 19 -21 11 -29 -13 -13 -1 -52 17 -52 11 0 13 -8 9
-29 -5 -23 -2 -32 14 -40 13 -7 18 -18 15 -34 -3 -17 1 -29 15 -38 11 -8 19
-25 18 -38 -1 -16 7 -29 19 -35 13 -7 19 -19 17 -34 -2 -16 3 -25 19 -31 17
-6 23 -16 24 -37 0 -23 5 -30 23 -32 16 -2 22 -8 18 -18 -9 -23 5 -44 29 -44
19 0 22 -4 18 -21 -7 -25 20 -51 42 -43 10 4 12 -1 8 -17 -7 -26 20 -51 44
-42 11 4 14 2 11 -8 -8 -21 10 -49 32 -49 12 0 20 -8 22 -22 2 -16 11 -24 30
-26 19 -2 28 -10 30 -25 2 -15 11 -23 28 -25 15 -2 30 -12 35 -25 7 -16 18
-21 37 -20 21 1 28 -3 30 -20 2 -16 10 -22 28 -22 15 0 29 -8 35 -20 7 -13 21
-20 38 -20 15 1 27 -4 27 -11 0 -22 30 -39 48 -27 13 8 19 5 27 -11 7 -14 21
-21 39 -21 16 -1 32 -8 37 -18 11 -19 44 -23 55 -5 5 7 10 4 16 -11 7 -19 14
-22 39 -19 20 3 33 0 36 -9 6 -16 49 -17 59 -1 5 7 10 4 15 -10 9 -24 38 -29
58 -10 10 11 14 10 22 -5 11 -19 39 -23 55 -7 8 8 15 6 24 -5 16 -20 49 -19
57 1 5 15 7 15 15 0 10 -18 49 -21 65 -5 8 8 13 8 17 0 10 -15 53 -14 59 2 4
9 7 9 18 -1 19 -17 46 -15 59 6 8 12 13 13 16 5 8 -19 51 -16 62 3 6 11 11 13
16 5 11 -18 44 -13 59 10 9 13 17 16 22 10 9 -16 45 -13 51 3 4 10 15 13 39 9
27 -4 34 -2 40 16 5 17 9 18 24 9 25 -15 51 -3 51 24 0 17 3 19 12 10 18 -18
49 -14 55 7 3 14 13 18 36 17 26 -1 33 3 35 20 2 17 9 22 34 20 24 -1 33 4 37
19 4 14 15 20 36 20 21 0 31 6 35 20 3 13 13 20 30 20 18 0 26 6 28 23 2 15
10 22 26 22 27 0 51 24 41 40 -4 6 4 10 19 10 23 0 59 38 39 41 -4 1 6 4 22 8
23 5 31 12 33 34 3 21 9 27 27 27 25 0 38 21 28 47 -5 12 -2 15 10 10 22 -8
49 20 42 43 -4 14 0 19 17 22 18 2 23 9 23 31 -1 19 4 27 16 27 24 0 42 26 34
49 -4 15 -1 20 17 23 18 2 23 9 23 30 -1 16 2 28 6 28 4 0 15 7 23 16 12 11
13 20 6 33 -7 15 -4 20 15 29 27 13 32 31 13 50 -10 10 -8 14 9 18 27 7 36 29
23 54 -8 14 -5 19 11 23 16 4 20 12 18 35 -2 18 3 36 14 47 16 16 16 19 3 40
-14 21 -13 23 4 28 21 5 30 57 10 57 -5 0 -10 5 -10 10 0 6 6 10 14 10 8 0 16
7 20 15 7 19 -3 45 -17 45 -6 0 -1 9 12 21 20 19 21 23 7 44 -13 20 -13 25 -1
35 19 16 19 34 -1 51 -14 11 -14 13 0 21 21 12 20 45 -1 56 -16 9 -16 11 0 27
21 21 21 29 1 50 -13 12 -14 19 -5 28 16 16 14 45 -5 55 -14 8 -14 12 -3 31
13 20 12 24 -9 41 -13 11 -18 21 -12 25 15 9 12 45 -4 51 -10 4 -13 15 -9 40
5 29 2 35 -17 42 -16 6 -19 11 -12 16 19 12 14 47 -8 53 -15 4 -18 11 -13 35
5 24 2 30 -15 35 -17 4 -20 10 -15 34 4 24 1 30 -21 40 -19 9 -23 16 -16 24
18 22 -2 51 -32 46 -4 0 -6 12 -5 27 1 19 -4 30 -21 37 -15 6 -21 16 -18 28 5
19 -18 47 -39 47 -9 0 -12 6 -9 15 8 20 -13 45 -37 45 -12 0 -16 5 -13 15 8
19 -13 45 -36 45 -13 0 -17 6 -13 19 5 20 -29 47 -47 36 -5 -3 -10 7 -12 22
-2 22 -9 29 -30 31 -19 2 -28 10 -30 25 -2 15 -11 23 -30 25 -19 2 -28 10 -30
25 -2 17 -10 22 -30 22 -20 -1 -28 4 -28 17 0 21 -27 37 -51 31 -14 -4 -19 0
-19 15 0 22 -22 35 -44 26 -9 -3 -17 3 -21 16 -6 18 -13 21 -36 18 -18 -3 -29
0 -29 8 0 22 -30 39 -50 27 -14 -10 -19 -7 -29 14 -9 20 -16 24 -36 19 -17 -4
-31 0 -45 14 -15 15 -25 18 -37 11 -12 -6 -21 -3 -34 13 -15 18 -21 19 -38 9
-26 -16 -31 -16 -31 1 0 8 -7 16 -15 20 -19 7 -45 -3 -45 -17 0 -6 -7 -1 -16
11 -16 23 -48 29 -60 11 -5 -8 -10 -6 -16 5 -10 19 -39 21 -55 5 -9 -9 -16 -8
-28 5 -20 20 -29 20 -48 1 -13 -13 -16 -13 -27 0 -7 8 -18 15 -26 15 -7 0 -19
-7 -27 -15 -13 -13 -16 -13 -27 0 -17 21 -36 19 -53 -5z m368 -95 c270 -56
500 -175 692 -358 271 -259 415 -578 430 -947 7 -183 -13 -329 -67 -491 -70
-211 -174 -382 -324 -534 -351 -356 -839 -496 -1323 -380 -261 62 -480 190
-674 393 -194 201 -316 442 -364 717 -23 129 -23 346 -1 475 82 465 402 864
838 1044 98 40 249 81 353 95 100 14 345 6 440 -14z"/>
<path d="M1300 2825 c-500 -83 -894 -410 -1064 -883 -51 -142 -70 -262 -70
-442 0 -176 12 -257 61 -415 123 -390 448 -720 843 -855 187 -63 435 -86 625
-57 552 86 975 471 1113 1014 25 100 27 123 27 313 0 190 -2 213 -27 313 -111
437 -421 787 -838 944 -186 71 -478 100 -670 68z m430 -22 c722 -121 1212
-827 1075 -1550 -50 -262 -170 -488 -365 -684 -198 -199 -438 -326 -705 -374
-119 -22 -342 -22 -460 0 -487 87 -890 441 -1038 910 -76 243 -76 544 0 790
96 308 326 593 612 756 261 150 574 204 881 152z"/>
<path d="M1534 2766 c-3 -9 -3 -23 0 -32 5 -14 -2 -15 -49 -12 -39 2 -55 -1
-55 -9 0 -8 14 -13 35 -13 32 0 35 -2 35 -30 0 -33 -24 -50 -43 -31 -9 9 -6
13 11 17 30 8 28 24 -3 24 -20 0 -25 -5 -25 -24 0 -28 24 -51 44 -43 10 4 16
-2 18 -20 2 -15 8 -28 15 -30 8 -3 10 8 6 35 -6 41 10 63 30 43 7 -7 7 -17 -1
-35 -7 -15 -7 -28 -2 -31 10 -6 30 26 30 49 0 21 -30 48 -46 42 -9 -4 -14 2
-14 15 0 17 5 20 38 17 l37 -3 3 -65 c4 -92 22 -102 22 -12 0 41 4 72 10 72 6
0 10 5 10 10 0 6 -6 10 -12 10 -7 0 -20 15 -28 33 -17 35 -56 49 -66 23z m50
-28 c18 -26 15 -32 -13 -23 -12 3 -21 15 -21 26 0 25 15 24 34 -3z"/>
<path d="M1243 2743 c-17 -6 -16 -32 1 -65 8 -15 20 -52 27 -83 7 -34 17 -55
26 -55 14 0 11 22 -13 92 -14 41 -11 48 23 48 24 0 33 -25 11 -33 -17 -5 8
-37 29 -37 15 0 14 20 -3 64 -4 11 0 16 14 16 18 0 21 -9 27 -65 7 -58 18 -85
30 -73 2 2 -1 35 -7 73 -9 53 -9 70 0 73 24 8 11 24 -15 19 -16 -3 -38 3 -57
14 -30 18 -67 23 -93 12z m75 -19 c33 -9 27 -21 -15 -27 -40 -5 -60 4 -49 22
8 12 30 14 64 5z"/>
<path d="M1127 2733 c-24 -6 -11 -23 17 -23 13 0 31 -9 41 -20 17 -19 17 -20
-1 -20 -10 0 -55 -13 -98 -30 l-79 -29 -29 24 c-31 27 -37 28 -62 19 -26 -10
-18 -27 9 -21 17 3 34 -2 48 -15 l22 -19 -22 10 c-27 14 -63 14 -63 1 0 -5 11
-10 25 -10 44 0 71 -21 98 -76 15 -30 31 -54 37 -54 14 0 13 4 -20 69 l-29 59
31 11 c45 16 56 13 29 -8 -16 -12 -20 -21 -12 -25 6 -4 11 -16 11 -27 0 -30
43 -46 73 -26 21 14 24 14 34 -1 23 -36 22 -2 -2 52 -29 66 -31 79 -8 74 9 -2
25 -27 38 -63 12 -32 28 -61 34 -63 15 -5 14 -2 -13 72 -17 43 -21 66 -13 69
10 3 -61 78 -73 76 -3 -1 -13 -3 -23 -6z m23 -134 c16 -37 5 -62 -29 -67 -27
-4 -28 18 -1 25 11 3 17 9 14 15 -3 5 -14 6 -25 3 -11 -4 -19 -2 -19 4 0 6 7
11 16 11 11 0 14 6 9 20 -11 34 21 24 35 -11z"/>
<path d="M2013 2640 c-3 -11 -10 -20 -15 -20 -5 0 -8 -6 -5 -12 2 -7 -7 -37
-20 -66 -25 -56 -28 -72 -15 -72 5 0 20 27 34 60 l26 59 41 -17 c22 -9 41 -23
41 -30 0 -9 -5 -10 -19 -2 -30 15 -49 12 -61 -10 -13 -24 3 -60 26 -60 10 0
13 -7 8 -25 -11 -45 12 -26 41 34 18 39 32 58 41 54 8 -3 14 0 14 7 0 6 -9 14
-20 17 -11 3 -20 13 -20 23 0 26 -48 80 -72 80 -11 0 -22 -8 -25 -20z m62 -30
c31 -33 21 -39 -25 -15 -30 15 -36 26 -23 38 11 12 18 8 48 -23z m-1 -86 c20
-8 9 -34 -14 -34 -22 0 -34 15 -25 30 7 11 17 12 39 4z"/>
<path d="M906 2558 c-30 -20 -43 -34 -35 -37 8 -2 20 -12 27 -23 7 -10 22 -18
33 -18 18 0 20 -4 14 -30 -4 -19 -3 -30 4 -30 7 0 14 14 18 30 7 38 20 47 28
20 3 -11 13 -20 21 -20 20 0 18 4 -21 60 -20 28 -32 56 -29 65 9 22 -5 18 -60
-17z m52 -28 c7 -12 10 -25 7 -30 -16 -26 -62 6 -51 35 8 21 29 19 44 -5z"/>
<path d="M1300 2516 c-428 -90 -744 -417 -815 -845 -84 -499 218 -992 700
-1144 124 -39 219 -50 362 -44 278 11 504 115 699 320 105 110 171 216 219
351 157 437 7 923 -366 1189 -86 61 -235 131 -335 158 -101 27 -364 36 -464
15z m444 -30 c183 -47 338 -135 471 -270 130 -131 213 -274 263 -454 23 -86
26 -115 27 -252 0 -188 -20 -282 -94 -435 -156 -326 -462 -541 -817 -574 -593
-54 -1104 410 -1104 1004 0 271 101 516 290 706 92 93 165 146 277 203 82 41
217 82 313 96 100 14 265 3 374 -24z"/>
<path d="M1310 2466 c-573 -120 -916 -697 -744 -1250 102 -327 371 -578 710
-663 110 -27 354 -25 464 5 530 143 841 672 705 1197 -71 270 -281 523 -530
636 -136 62 -227 81 -390 85 -100 2 -172 -1 -215 -10z m316 -11 c217 -20 462
-155 610 -336 271 -331 296 -790 64 -1138 -144 -215 -368 -366 -619 -416 -124
-25 -325 -17 -444 19 -331 99 -578 352 -668 686 -32 119 -33 356 -1 473 107
392 440 678 835 716 80 8 97 8 223 -4z"/>
<path d="M1435 2339 c5 -13 8 -30 8 -37 0 -24 42 -8 47 18 4 19 12 26 35 27
23 2 26 1 11 -5 -25 -11 -31 -48 -10 -56 9 -4 22 -2 29 4 6 5 15 7 18 4 3 -4
9 5 13 20 9 37 28 33 21 -4 -4 -17 -2 -30 3 -30 6 0 10 11 10 24 0 31 7 34 45
25 l30 -7 -27 -1 c-17 -1 -28 -7 -28 -15 0 -24 22 -30 37 -11 12 17 13 17 14
-11 l1 -29 10 30 c14 38 12 37 32 29 15 -6 15 -7 -1 -20 -17 -13 -17 -15 7
-34 l25 -20 9 25 c14 36 29 31 21 -6 -5 -22 -4 -29 4 -25 6 4 11 13 11 21 0
23 18 27 47 10 l28 -15 -27 6 c-21 5 -28 2 -28 -9 0 -22 18 -31 35 -17 21 17
19 -4 -1 -25 -16 -15 -16 -18 1 -33 16 -16 17 -16 11 4 -4 14 1 29 19 48 l25
27 -66 30 c-95 43 -198 67 -321 75 l-105 7 7 -24z"/>
<path d="M1232 2314 c-112 -37 -208 -91 -274 -152 -15 -14 -31 -23 -34 -19 -8
8 -64 -20 -64 -32 0 -20 13 -41 25 -41 7 0 18 -7 25 -15 7 -8 17 -15 23 -15 6
0 0 11 -13 25 -20 21 -21 27 -9 42 11 15 11 16 -1 6 -8 -7 -21 -13 -29 -13
-13 1 -12 4 3 15 18 14 61 14 74 0 3 -3 0 -11 -6 -17 -9 -9 -12 -8 -12 7 0 15
-3 16 -12 7 -21 -21 6 -38 38 -23 l27 12 -22 23 -21 22 30 22 c16 12 33 22 37
22 4 0 1 -5 -7 -10 -12 -8 -11 -10 8 -10 12 0 22 -4 22 -10 0 -5 5 -10 11 -10
7 0 5 9 -5 24 -9 14 -12 27 -6 31 5 3 14 -4 20 -15 6 -11 16 -20 22 -20 6 0 4
10 -6 25 -15 23 -15 25 6 40 12 8 27 15 33 15 5 0 2 -5 -7 -11 -10 -5 -18 -17
-18 -24 0 -21 27 -19 39 3 6 9 11 11 11 5 0 -7 5 -13 11 -13 6 0 8 7 5 15 -3
8 -9 21 -12 29 -3 7 1 16 9 19 9 3 14 -1 13 -11 -1 -12 8 -18 32 -20 31 -3 33
-2 23 17 -14 25 -14 41 -1 41 5 0 12 -11 16 -25 3 -14 10 -25 15 -25 5 0 6 12
3 26 -7 29 7 44 41 43 18 0 18 -1 -2 -9 -25 -10 -30 -25 -11 -36 6 -4 17 1 25
11 7 11 14 14 14 7 1 -7 2 -18 3 -24 0 -7 12 -14 26 -16 23 -3 23 -2 7 10 -9
7 -18 28 -20 45 -2 40 -9 40 -105 7z"/>
<path d="M1481 2194 c-18 -13 -22 -23 -18 -48 7 -45 32 -107 40 -99 11 10 8
53 -5 89 -10 29 -9 36 7 54 22 24 9 26 -24 4z"/>
<path d="M1990 2182 c0 -6 6 -13 13 -15 6 -3 2 -6 -10 -6 -32 -1 -30 -31 2
-31 18 0 23 -4 19 -15 -8 -20 6 -19 21 2 8 11 18 14 31 9 18 -8 18 -9 -3 -17
-27 -10 -28 -17 -8 -43 14 -19 15 -19 35 -1 11 10 21 16 23 14 1 -2 11 -15 22
-28 11 -14 14 -21 8 -17 -8 4 -13 1 -13 -8 0 -9 -7 -16 -15 -16 -9 0 -12 -6
-9 -15 10 -25 -5 -17 -20 13 -9 15 -15 20 -16 12 0 -19 27 -60 40 -60 5 0 15
12 22 28 8 15 21 26 31 26 9 -1 17 2 17 6 0 12 -128 140 -140 140 -6 0 -8 -4
-5 -10 3 -5 2 -10 -4 -10 -5 0 -11 10 -13 22 -3 21 -28 39 -28 20z"/>
<path d="M985 2160 c-9 -15 7 -40 26 -40 26 0 25 36 -1 43 -11 3 -22 1 -25 -3z"/>
<path d="M1517 2054 c-4 -11 -21 -30 -37 -42 -30 -23 -42 -73 -20 -87 6 -3 10
4 10 16 0 13 14 37 31 55 21 22 30 39 27 55 -4 23 -4 23 -11 3z"/>
<path d="M1507 1982 c-21 -23 -22 -66 -1 -97 10 -16 14 -35 10 -52 l-6 -28 26
29 c26 29 26 35 3 94 -11 26 -11 36 -1 52 16 27 -8 28 -31 2z"/>
<path d="M1406 1968 c-27 -38 -20 -75 23 -121 34 -36 41 -39 55 -28 24 20 20
34 -25 75 -36 32 -41 41 -35 66 7 36 2 38 -18 8z"/>
<path d="M1580 1873 c0 -11 -9 -32 -21 -47 l-21 -27 26 5 c14 3 30 7 36 11 15
9 12 51 -5 65 -12 10 -15 9 -15 -7z"/>
<path d="M1105 1789 c-245 -5 -288 -13 -384 -70 -48 -29 -131 -92 -131 -99 0
-3 12 -18 25 -33 l25 -28 43 36 c59 50 150 92 233 105 124 21 275 -29 378
-124 21 -20 40 -36 42 -36 2 0 4 56 4 125 0 104 2 125 15 125 17 0 16 8 18
-132 1 -60 5 -108 10 -108 4 0 63 0 132 0 l125 0 0 121 c0 109 2 120 18 117
11 -2 18 -14 20 -39 3 -34 4 -35 40 -31 l37 3 -24 -20 c-13 -12 -29 -21 -36
-21 -9 0 -14 -20 -17 -65 -1 -36 -1 -65 0 -65 2 0 23 16 45 36 100 85 261 134
382 114 70 -11 168 -56 217 -99 43 -37 48 -38 77 -7 l22 23 -43 37 c-57 49
-129 90 -204 115 -56 19 -89 20 -450 23 -214 2 -492 1 -619 -3z m146 -40 c11
-6 11 -11 1 -21 -17 -17 -16 -22 14 -57 14 -17 23 -31 20 -31 -3 0 -34 15 -68
34 -35 19 -90 42 -123 53 l-60 18 35 6 c50 9 166 8 181 -2z m662 4 l68 -6 -68
-22 c-38 -12 -82 -29 -99 -38 -16 -9 -44 -23 -63 -32 l-34 -17 22 30 c24 34
27 57 9 68 -8 5 -6 10 8 15 25 10 72 10 157 2z m-583 -58 c0 -14 -2 -25 -6
-25 -3 0 -22 11 -42 25 l-37 25 43 0 c38 0 42 -2 42 -25z m298 -17 l3 -38
-125 0 -126 0 0 33 c0 19 3 37 7 41 4 3 59 5 122 4 l116 -3 3 -37z m-85 -99
c-39 -18 -45 -18 -78 -5 -19 8 -35 17 -35 20 0 4 35 6 78 5 l77 -1 -42 -19z"/>
<path d="M1394 1685 c-9 -24 10 -39 41 -31 18 5 25 12 23 24 -4 23 -56 29 -64
7z"/>
<path d="M1476 1692 c6 -4 14 -16 19 -27 8 -20 8 -20 13 0 2 11 9 23 16 27 6
4 -5 8 -24 8 -19 0 -30 -4 -24 -8z"/>
<path d="M1546 1691 c-11 -17 14 -42 38 -39 22 3 37 48 17 48 -6 0 -11 -9 -11
-20 0 -27 -19 -26 -29 2 -5 15 -10 18 -15 9z"/>
<path d="M710 1371 l0 -171 58 0 c67 0 133 27 157 64 57 86 30 207 -55 251
-14 7 -55 16 -92 20 l-68 7 0 -171z m140 104 c60 -31 80 -127 38 -180 -23 -29
-74 -55 -108 -55 -19 0 -20 6 -20 125 l0 125 30 0 c17 0 44 -7 60 -15z"/>
<path d="M1457 1533 c-4 -3 -7 -80 -7 -170 l0 -163 56 0 c54 0 56 1 50 23 -3
12 -6 88 -6 170 l0 147 -43 0 c-24 0 -47 -3 -50 -7z m63 -146 c0 -111 -10
-158 -24 -121 -8 20 -7 224 1 237 15 24 23 -18 23 -116z"/>
<path d="M1710 1350 l0 -150 60 0 c53 0 60 2 60 20 0 17 -7 20 -45 20 l-45 0
0 50 0 50 45 0 c38 0 45 3 45 20 0 17 -7 20 -45 20 l-45 0 0 41 0 42 45 -5
c42 -5 45 -4 45 18 0 23 -3 24 -60 24 l-60 0 0 -150z"/>
<path d="M1915 1469 c-96 -84 -49 -269 68 -269 35 0 67 28 67 57 l0 26 -23
-21 c-82 -78 -176 78 -101 167 30 36 61 39 98 10 l26 -20 0 25 c0 30 -33 56
-72 56 -16 0 -41 -12 -63 -31z"/>
<path d="M2085 1345 c0 -131 2 -145 18 -145 15 0 17 10 17 70 l0 70 55 0 55 0
0 -70 c0 -60 3 -70 18 -70 15 0 17 14 17 145 0 131 -2 145 -17 145 -15 0 -18
-9 -18 -54 l0 -54 -55 -4 -55 -3 0 58 c0 48 -3 57 -17 57 -16 0 -18 -14 -18
-145z"/>
<path d="M1010 1335 l0 -135 70 0 c63 0 70 2 70 20 0 17 -7 20 -50 20 l-50 0
0 45 0 45 50 0 c43 0 50 3 50 20 0 17 -5 18 -50 13 l-50 -6 0 37 0 36 50 0
c43 0 50 3 50 20 0 18 -7 20 -70 20 l-70 0 0 -135z"/>
<path d="M1200 1335 l0 -135 55 0 c48 0 55 2 55 20 0 16 -7 20 -35 20 l-35 0
0 115 c0 108 -1 115 -20 115 -19 0 -20 -7 -20 -135z"/>
<path d="M2275 1151 c-3 -6 -17 -8 -32 -5 l-26 7 19 -26 c24 -33 26 -33 41 0
13 26 11 44 -2 24z"/>
<path d="M682 1128 c6 -42 67 -33 68 10 0 6 -7 12 -15 12 -8 0 -12 -6 -9 -14
3 -8 0 -17 -6 -21 -7 -4 -14 2 -17 14 -7 28 -25 27 -21 -1z"/>
<path d="M870 1123 c0 -22 2 -25 10 -13 7 12 12 12 22 2 19 -19 28 -14 28 13
0 14 -4 25 -10 25 -5 0 -10 -5 -10 -12 0 -9 -3 -9 -12 0 -19 19 -28 14 -28
-15z"/>
<path d="M1060 1125 c0 -14 6 -25 14 -25 9 0 12 8 8 25 -2 14 -8 25 -13 25 -5
0 -9 -11 -9 -25z"/>
<path d="M1206 1125 c19 -29 31 -28 52 3 13 20 13 22 -2 22 -9 0 -16 -8 -16
-17 -1 -17 -1 -17 -14 0 -21 28 -39 21 -20 -8z"/>
<path d="M1390 1125 c0 -22 4 -25 33 -24 28 2 29 2 7 7 l-25 5 25 8 25 7 -25
2 -25 2 25 8 c24 8 23 8 -7 9 -29 1 -33 -2 -33 -24z"/>
<path d="M1568 1125 c-4 -17 -1 -25 8 -25 8 0 14 5 14 12 0 9 3 9 12 0 18 -18
23 -15 26 13 1 21 -2 25 -27 25 -23 0 -30 -5 -33 -25z"/>
<path d="M1744 1135 c3 -8 1 -15 -5 -15 -6 0 -7 -4 -4 -10 8 -12 52 -13 59 -1
11 18 -6 41 -31 41 -18 0 -24 -4 -19 -15z"/>
<path d="M1910 1124 c0 -15 5 -24 12 -22 16 6 18 48 1 48 -7 0 -13 -11 -13
-26z"/>
<path d="M2058 1143 c6 -2 12 -13 12 -24 0 -10 5 -19 10 -19 6 0 10 9 10 19 0
11 6 22 13 24 6 3 -4 5 -23 5 -19 0 -29 -2 -22 -5z"/>
<path d="M1176 962 c-4 -3 -6 -14 -6 -24 0 -20 -12 -23 -41 -8 -17 10 -20 7
-25 -20 -4 -17 -11 -33 -16 -36 -14 -9 -58 24 -76 57 -10 16 -21 29 -26 29 -9
0 -2 -72 10 -104 7 -17 3 -18 -35 -12 l-42 6 27 -35 c35 -46 95 -88 157 -109
61 -21 67 -20 67 5 0 17 5 20 23 16 86 -21 94 -20 100 10 l6 28 205 0 206 0 6
-29 c6 -26 8 -28 44 -22 21 3 45 9 54 12 12 4 16 0 16 -15 0 -26 15 -26 86 0
38 14 75 39 111 73 61 60 69 80 23 63 -16 -6 -32 -8 -35 -5 -4 3 -2 30 3 59
12 62 7 74 -16 39 -9 -14 -30 -38 -46 -54 l-28 -30 -14 25 c-7 13 -13 32 -14
42 0 19 -15 23 -25 7 -10 -17 -35 -11 -35 8 0 30 -7 31 -71 11 -149 -46 -336
-46 -516 0 -40 10 -74 16 -77 13z m147 -43 c154 -30 362 -21 469 20 26 10 27
9 37 -37 5 -26 13 -54 16 -64 5 -12 -2 -19 -27 -27 -51 -17 -235 -41 -313 -41
-107 0 -315 34 -343 55 -3 2 14 82 24 114 3 8 11 10 22 6 9 -4 61 -15 115 -26z
m-169 -59 c-7 -45 0 -58 60 -102 21 -15 32 -28 24 -28 -31 0 -116 31 -131 48
-15 17 -16 23 -2 76 8 31 15 59 15 62 0 3 9 0 20 -6 17 -9 19 -17 14 -50z
m846 19 c-14 -48 -14 -49 22 -49 l32 0 -28 -29 c-24 -25 -132 -91 -150 -91 -3
0 10 21 30 47 21 28 34 54 31 65 -3 11 8 31 31 56 21 20 38 37 39 36 2 0 -2
-16 -7 -35z m-920 -29 c5 0 6 -15 3 -33 -4 -28 0 -40 28 -72 32 -36 32 -37 9
-30 -41 12 -103 51 -134 84 l-30 31 33 0 c26 0 32 3 27 16 -3 9 -9 28 -13 42
l-6 27 37 -32 c20 -18 41 -33 46 -33z m827 10 l22 -50 -33 -25 c-37 -28 -97
-55 -123 -55 -13 0 -9 5 12 19 58 36 78 66 71 106 -14 72 20 75 51 5z"/>
<path d="M1216 914 c-8 -21 -8 -21 14 -27 23 -6 26 8 6 28 -12 12 -15 12 -20
-1z"/>
<path d="M1761 909 c-13 -5 -35 -10 -48 -11 -12 -1 -23 -8 -23 -15 0 -16 -3
-16 60 -2 46 10 61 21 43 32 -5 3 -19 1 -32 -4z"/>
<path d="M1260 891 c0 -6 8 -12 18 -13 35 -3 48 -5 85 -13 43 -8 76 8 35 18
-57 14 -138 19 -138 8z"/>
<path d="M1448 882 c-10 -2 -18 -10 -18 -18 0 -16 9 -18 29 -5 18 12 10 28
-11 23z"/>
<path d="M1628 885 c-2 -3 -37 -6 -76 -7 -40 -1 -72 -5 -72 -9 0 -13 37 -16
108 -10 46 4 73 3 76 -4 2 -5 5 0 5 13 1 15 -5 22 -17 22 -10 0 -21 -2 -24 -5z"/>
<path d="M1477 827 c-8 -21 6 -35 36 -35 23 0 27 5 27 27 -1 24 -2 25 -14 8
-12 -15 -14 -16 -20 -2 -7 19 -22 20 -29 2z"/>
<path d="M2153 2504 c-3 -9 -1 -25 6 -36 15 -25 7 -35 -14 -18 -21 17 -46 -3
-27 -22 7 -7 12 -22 12 -35 0 -13 5 -23 10 -23 6 0 10 11 10 24 0 17 7 26 24
30 14 3 28 15 31 26 3 11 12 20 18 20 18 -1 79 -59 72 -70 -3 -5 -15 0 -25 10
-11 11 -26 20 -33 20 -38 0 -52 -64 -16 -75 16 -5 18 -10 9 -20 -7 -8 -10 -21
-8 -29 2 -11 18 2 48 39 40 49 46 53 60 39 13 -13 10 -20 -32 -60 -45 -42 -58
-64 -40 -64 4 0 28 20 52 45 25 25 50 43 57 40 10 -3 12 2 7 20 -5 20 -2 25
13 25 20 0 43 -37 43 -68 -1 -15 -2 -15 -15 2 -24 32 -29 10 -5 -24 12 -17 19
-34 16 -37 -4 -4 -13 3 -22 15 -19 28 -49 28 -68 0 -14 -19 -14 -25 -2 -44 13
-18 13 -23 -2 -37 -34 -35 -1 -27 51 12 59 45 77 45 96 4 14 -31 6 -44 -12
-19 -11 15 -15 16 -44 1 -17 -8 -34 -22 -37 -31 -7 -19 8 -50 30 -58 16 -6 15
-8 -2 -20 -10 -8 -16 -17 -13 -21 4 -3 33 10 65 29 51 31 60 34 73 21 18 -18
20 -16 -51 -48 -32 -14 -58 -31 -58 -36 0 -15 4 -14 70 19 35 18 61 26 65 20
10 -16 28 -12 21 5 -8 22 -97 157 -118 179 -10 11 -18 22 -19 25 0 3 -2 25 -4
47 -6 71 -42 109 -75 79 -16 -15 -20 -14 -46 11 -49 46 -132 104 -149 104 -9
0 -18 -7 -22 -16z m47 -25 c0 -24 -23 -21 -28 4 -2 10 3 17 12 17 10 0 16 -9
16 -21z m60 -84 c16 -20 1 -38 -23 -29 -17 6 -22 25 -10 37 10 11 19 8 33 -8z
m131 -131 c10 -13 10 -17 -1 -24 -14 -9 -50 4 -50 19 0 24 32 28 51 5z m73
-90 c4 -10 13 -13 26 -9 32 10 24 -18 -10 -39 -29 -16 -33 -16 -55 -2 -14 9
-25 23 -25 31 0 20 9 19 33 -2 19 -18 20 -17 13 10 -7 29 8 38 18 11z"/>
<path d="M500 2285 c-15 -18 -6 -45 15 -45 22 0 19 -8 -23 -64 -59 -78 -86
-126 -70 -125 7 0 35 34 61 75 27 41 55 74 63 74 21 0 17 -14 -11 -40 -14 -13
-25 -29 -25 -37 0 -7 -4 -13 -10 -13 -5 0 -10 -5 -10 -12 0 -6 -7 -20 -16 -30
-14 -14 -14 -20 -4 -33 14 -17 110 -21 110 -5 0 6 -18 9 -42 8 -34 -2 -43 1
-46 15 -3 15 1 17 22 11 30 -7 34 3 9 22 -15 10 -8 12 45 7 43 -4 62 -2 62 6
0 6 -18 11 -45 11 -35 0 -45 4 -45 16 0 12 6 15 25 10 28 -7 35 8 8 18 -12 5
-13 10 -6 17 8 8 21 4 46 -15 21 -16 38 -23 41 -17 4 6 -16 25 -43 43 -29 19
-51 41 -51 51 0 10 -8 17 -20 17 -11 0 -20 7 -20 15 0 9 9 15 25 15 16 0 25
-6 25 -15 0 -8 6 -15 13 -15 7 0 31 -18 52 -40 21 -22 46 -40 54 -40 9 0 -4
20 -32 48 -28 29 -46 54 -42 63 8 20 -99 24 -115 4z"/>
<path d="M2587 2054 c-3 -4 3 -24 14 -46 12 -24 17 -44 12 -49 -9 -9 -24 13
-37 54 -9 29 -52 21 -80 -16 -26 -34 -33 -57 -18 -57 4 0 16 16 26 35 11 21
27 35 38 35 22 0 24 -25 3 -34 -25 -9 -17 -24 10 -18 43 8 27 -15 -20 -28 -25
-7 -45 -19 -45 -26 0 -10 18 -7 71 13 76 28 89 25 89 -24 0 -26 -24 -31 -37
-8 -8 13 -12 13 -32 -1 -17 -12 -22 -24 -19 -45 4 -25 1 -29 -18 -29 -22 0
-41 -16 -32 -26 3 -2 38 3 78 12 60 14 74 14 81 3 16 -27 22 2 11 56 -11 55
-72 204 -83 205 -3 0 -8 -3 -12 -6z m18 -194 c3 -6 17 -7 31 -4 17 5 24 2 24
-9 0 -16 -52 -33 -70 -22 -13 8 -13 45 -1 45 6 0 13 -5 16 -10z"/>
<path d="M393 2023 c-2 -10 -18 -25 -36 -33 -60 -29 -86 -100 -36 -100 10 0
19 -5 19 -11 0 -6 8 -8 19 -4 11 3 45 -1 76 -11 39 -11 60 -13 67 -6 10 10
-21 22 -100 38 -36 7 -36 6 -20 51 13 35 30 45 27 16 -3 -37 1 -43 36 -43 24
0 39 6 47 20 7 11 21 20 30 20 10 0 18 5 18 11 0 6 -8 8 -19 4 -11 -3 -22 -1
-26 5 -13 22 -36 10 -33 -17 2 -20 -2 -28 -16 -31 -16 -3 -18 0 -13 27 5 23 3
33 -8 38 -10 3 -13 12 -10 24 4 11 2 19 -5 19 -7 0 -14 -8 -17 -17z m-33 -88
c-12 -35 -32 -43 -38 -14 -3 15 37 64 45 55 3 -2 0 -21 -7 -41z"/>
<path d="M334 1566 c-6 -33 -8 -35 -53 -38 l-46 -3 35 -19 c19 -10 36 -20 38
-21 2 -2 -4 -20 -12 -40 -22 -51 -21 -51 20 -20 l36 27 30 -28 31 -29 -6 25
c-3 14 -8 34 -12 45 -4 15 2 25 27 40 l33 20 -42 3 c-39 3 -43 5 -49 38 -8 44
-21 44 -30 0z"/>
<path d="M2654 1566 c-6 -33 -8 -35 -53 -38 l-46 -3 37 -22 37 -22 -14 -35
c-20 -48 -19 -53 8 -29 40 36 47 37 79 7 l31 -29 -7 25 c-3 14 -9 34 -12 45
-4 15 3 25 28 40 l33 20 -43 3 c-38 3 -43 6 -49 33 -8 43 -21 45 -29 5z"/>
<path d="M2630 1265 c0 -10 7 -26 16 -36 15 -17 15 -18 -9 -24 -14 -4 -28 -14
-31 -22 -5 -12 -1 -14 21 -7 16 5 47 8 71 7 29 0 42 4 42 13 0 8 -10 14 -21
14 -12 0 -37 17 -55 37 -27 29 -34 33 -34 18z"/>
<path d="M320 1217 c-46 -14 -44 -10 -30 -51 13 -40 35 -51 73 -37 32 12 46
38 38 71 -8 29 -30 33 -81 17z m58 -39 c-2 -18 -11 -24 -35 -26 -27 -3 -33 0
-33 17 0 19 15 27 53 30 14 1 18 -5 15 -21z"/>
<path d="M2582 1119 c-14 -45 -9 -62 11 -36 11 15 15 15 54 -3 28 -12 45 -15
49 -9 9 14 -4 24 -49 39 -30 9 -37 16 -32 31 4 12 2 19 -7 19 -7 0 -19 -19
-26 -41z"/>
<path d="M360 1110 c-47 -19 -49 -25 -30 -76 5 -13 15 -24 21 -24 6 0 9 6 6
13 -16 43 -17 55 -3 60 9 4 16 -3 20 -19 9 -36 29 -30 21 6 -8 37 12 42 21 5
3 -14 12 -25 20 -25 17 0 17 0 -1 44 -17 41 -14 40 -75 16z"/>
<path d="M2556 1052 c-3 -5 18 -18 47 -30 61 -26 67 -26 67 -9 0 7 -22 20 -49
30 -56 20 -58 20 -65 9z"/>
<path d="M400 1017 c-25 -12 -47 -23 -49 -24 -8 -6 29 -73 40 -73 6 0 8 7 5
15 -3 8 -9 22 -12 30 -4 10 6 19 35 31 23 9 41 22 41 30 0 18 -6 17 -60 -9z"/>
<path d="M2528 994 c-21 -46 18 -81 49 -45 9 12 23 21 30 21 21 0 15 -31 -7
-37 -26 -7 -26 -23 0 -23 11 0 26 11 35 24 32 48 -18 85 -61 45 -13 -12 -27
-19 -31 -15 -5 4 0 13 10 20 21 16 22 36 2 36 -9 0 -21 -12 -27 -26z"/>
<path d="M445 935 c-22 -14 -44 -26 -49 -28 -5 -2 -6 -9 -2 -15 5 -9 12 -9 28
-1 16 8 24 8 35 -4 14 -13 13 -16 -6 -26 -11 -7 -21 -18 -21 -26 0 -11 12 -8
50 13 27 15 50 33 50 40 0 15 -13 15 -28 0 -10 -10 -15 -10 -22 2 -14 21 -12
30 5 36 15 6 21 34 8 34 -5 0 -26 -12 -48 -25z"/>
<path d="M2469 893 c-13 -21 -29 -44 -37 -52 -19 -20 -45 -61 -41 -64 2 -2 23
-18 47 -36 l43 -34 29 34 c19 22 25 37 19 44 -7 7 -13 5 -19 -5 -27 -43 -29
-45 -41 -33 -10 10 -9 17 6 33 13 14 15 24 8 31 -7 7 -16 2 -27 -17 -13 -19
-21 -23 -29 -15 -7 7 -6 16 6 29 9 10 17 24 17 30 0 17 8 15 57 -14 48 -27 73
-24 35 5 -28 20 -20 31 24 31 19 0 34 6 38 15 4 11 -2 15 -28 15 -25 0 -35 5
-39 20 -9 33 -43 24 -68 -17z m51 -8 c0 -15 -26 -32 -36 -23 -2 3 -2 13 2 22
8 20 34 21 34 1z"/>
<path d="M493 834 c-40 -24 -55 -44 -34 -44 14 0 100 54 101 63 0 13 -25 6
-67 -19z"/>
<path d="M2370 763 c0 -5 9 -23 20 -41 11 -18 20 -35 20 -37 0 -3 -18 4 -40
15 l-40 20 -21 -21 -21 -21 43 -44 c29 -29 46 -41 53 -34 7 7 -3 24 -29 51
-22 23 -33 40 -25 37 8 -3 34 -14 58 -23 25 -10 47 -14 52 -9 10 10 -46 114
-61 114 -5 0 -9 -3 -9 -7z"/>
<path d="M2260 652 c0 -5 11 -19 25 -32 14 -13 23 -25 22 -27 -2 -2 -22 3 -45
11 -25 9 -44 11 -47 6 -9 -15 67 -102 79 -90 6 6 1 19 -15 36 l-24 27 25 -7
c14 -3 35 -9 48 -12 33 -9 28 14 -13 59 -34 35 -55 47 -55 29z"/>
<path d="M760 625 c0 -8 5 -15 10 -15 18 0 11 -18 -20 -54 -22 -24 -27 -37
-19 -42 12 -7 38 18 58 55 7 11 14 13 30 5 21 -9 21 -9 -9 -53 l-29 -45 34
-23 c19 -13 39 -23 44 -23 19 0 12 16 -14 30 -25 13 -33 34 -16 44 5 3 14 -1
21 -9 13 -16 40 -20 40 -7 0 5 -11 15 -25 22 -16 9 -22 17 -16 23 7 7 19 4 35
-6 18 -13 27 -14 32 -5 4 7 2 14 -5 16 -7 2 -42 26 -78 53 -35 27 -66 49 -69
49 -2 0 -4 -7 -4 -15z"/>
<path d="M2177 584 c-3 -4 7 -22 23 -42 28 -34 30 -62 4 -62 -7 0 -25 16 -40
35 -14 19 -30 35 -35 35 -19 0 -8 -27 25 -63 25 -27 39 -35 52 -31 52 19 56
41 18 96 -27 38 -35 44 -47 32z"/>
<path d="M910 488 c-28 -30 -26 -74 4 -93 25 -17 56 -11 56 10 0 9 -10 13 -27
12 -35 -3 -41 22 -13 54 l20 24 19 -22 c24 -28 31 -29 31 -3 0 20 -27 40 -54
40 -8 0 -24 -10 -36 -22z"/>
<path d="M1001 418 c-14 -34 -18 -55 -12 -61 7 -7 14 -1 20 16 11 29 18 32 39
18 9 -5 11 -17 6 -34 -12 -49 13 -28 35 29 25 66 25 64 6 64 -8 0 -15 -9 -15
-20 0 -21 -16 -26 -39 -11 -10 7 -11 13 -2 30 9 17 9 21 -2 21 -8 0 -24 -23
-36 -52z"/>
<path d="M1910 440 c0 -7 25 -65 46 -108 1 -2 18 5 38 14 37 18 50 40 19 31
-10 -2 -24 -6 -32 -8 -8 -3 -19 12 -29 39 -14 37 -42 59 -42 32z"/>
<path d="M1107 374 c-10 -31 -16 -58 -13 -61 9 -9 26 8 26 25 0 9 4 23 9 31 7
10 12 2 18 -29 4 -24 13 -45 20 -47 12 -4 48 105 38 115 -8 8 -25 -19 -25 -40
0 -34 -17 -18 -24 22 -9 56 -28 50 -49 -16z"/>
<path d="M1847 423 c-3 -5 -9 -37 -13 -71 -5 -44 -3 -62 5 -62 6 0 16 11 21
25 9 24 50 37 50 15 0 -5 7 -10 15 -10 21 0 20 4 -21 57 -38 51 -49 59 -57 46z"/>
<path d="M1231 386 c-7 -8 -14 -30 -18 -49 -4 -28 -1 -37 18 -51 13 -9 31 -16
40 -16 45 0 70 98 30 120 -27 14 -56 13 -70 -4z m59 -21 c20 -23 4 -65 -24
-65 -31 0 -41 26 -21 56 18 28 28 30 45 9z"/>
<path d="M1722 388 c-16 -16 -16 -69 1 -92 9 -12 23 -17 41 -14 30 3 56 31 42
45 -4 4 -12 0 -17 -10 -21 -37 -68 0 -54 44 6 17 12 19 37 14 23 -6 29 -4 26
6 -6 18 -60 23 -76 7z"/>
<path d="M1667 384 c-4 -4 -5 -16 -2 -28 2 -12 7 -38 10 -58 10 -63 27 -45 20
20 -7 58 -16 78 -28 66z"/>
<path d="M1336 324 c-4 -31 -5 -58 -4 -59 2 -1 20 -5 41 -9 30 -6 37 -4 37 9
0 10 -10 15 -29 15 -22 0 -28 4 -26 18 14 68 14 82 1 82 -9 0 -16 -19 -20 -56z"/>
<path d="M1568 369 c-12 -7 -18 -22 -18 -49 0 -62 40 -88 87 -55 28 20 20 55
-13 55 -13 0 -24 -4 -24 -10 0 -5 7 -10 15 -10 20 0 19 -16 -1 -24 -37 -14
-61 48 -29 74 12 10 18 10 30 0 19 -16 40 -3 24 16 -13 16 -46 18 -71 3z"/>
<path d="M1430 351 c-15 -30 -12 -66 8 -84 22 -20 63 -22 80 -5 16 16 16 80 0
96 -20 20 -76 15 -88 -7z m78 -32 c3 -29 -20 -54 -43 -45 -15 5 -21 57 -8 70
16 16 48 1 51 -25z"/>
</g>
</svg>
